<svg xmlns="http://www.w3.org/2000/svg" width="88.25" height="88.249" viewBox="0 0 88.25 88.249"><defs><style>.a{fill:#3457b7;}.b{fill:#d9000d;}</style></defs><g transform="translate(-76.094 -155.952)"><g transform="translate(114.694 167.028)"><path class="a" d="M225.837,228.8l-5.525-33.048L214.788,228.8" transform="translate(-214.788 -195.75)"/></g><g transform="translate(114.282 164.496)"><path class="a" d="M224.358,222.3l-5.113-30.585L214.132,222.3l-.824-.138,5.936-35.511,5.936,35.511Z" transform="translate(-213.309 -186.652)"/></g><g transform="translate(100.394 166.555)"><path class="a" d="M163.406,211.623l2.13-1.323a7.26,7.26,0,0,1,.976-.533,1.632,1.632,0,0,1,.693-.125,1.606,1.606,0,0,1,.685.191,1.421,1.421,0,0,1,.551.522,1.457,1.457,0,0,1,.225.812,1.472,1.472,0,0,1-.256.809,1.651,1.651,0,0,1,1.049.019,1.511,1.511,0,0,1,.761.641,1.867,1.867,0,0,1,.27.812,1.676,1.676,0,0,1-.121.836,1.8,1.8,0,0,1-.565.7q-.251.2-1.275.842l-1.814,1.126Zm1.627.219.765,1.233.706-.438q.629-.39.77-.5a.837.837,0,0,0,.316-.461.663.663,0,0,0-.1-.514.687.687,0,0,0-.386-.317.725.725,0,0,0-.522.065q-.171.081-.931.553Zm1.316,2.12.885,1.426,1-.619a5.694,5.694,0,0,0,.718-.491.785.785,0,0,0,.259-.455.772.772,0,0,0-.13-.546.817.817,0,0,0-.369-.335.772.772,0,0,0-.488-.035,4.294,4.294,0,0,0-1,.516Z" transform="translate(-163.406 -205.302)"/><path class="a" d="M203.634,202.379l-1.207-6.157,2.616-.513a4.57,4.57,0,0,1,1.467-.115,1.44,1.44,0,0,1,.832.45,1.8,1.8,0,0,1,.459.917,1.675,1.675,0,0,1-.183,1.224,1.993,1.993,0,0,1-1.106.808,2.961,2.961,0,0,1,.767.386,7.152,7.152,0,0,1,.9.861l.987,1.054-1.487.291-1.161-1.164a8.908,8.908,0,0,0-.833-.776.973.973,0,0,0-.424-.183,2.093,2.093,0,0,0-.639.053l-.252.049.5,2.57Zm.547-3.8.92-.18a4.847,4.847,0,0,0,1.1-.295.684.684,0,0,0,.3-.329.818.818,0,0,0,.035-.487.751.751,0,0,0-.264-.469.776.776,0,0,0-.516-.15q-.155.009-.911.157l-.97.19Z" transform="translate(-191.567 -195.148)"/><path class="a" d="M241.832,200.241l1.023-6.19,1.216.2,1.85,4.553.683-4.134,1.161.192-1.023,6.19-1.254-.207L243.66,196.4l-.667,4.037Z" transform="translate(-220.005 -194.051)"/><path class="a" d="M279.334,210.321a3.99,3.99,0,0,1,1.066-1.239,2.955,2.955,0,0,1,.941-.443,2.438,2.438,0,0,1,.986-.073,3.447,3.447,0,0,1,1.29.475,2.947,2.947,0,0,1,1.472,1.87,3.845,3.845,0,0,1-2.423,4.108,2.923,2.923,0,0,1-2.338-.386,2.953,2.953,0,0,1-1.481-1.868A3.239,3.239,0,0,1,279.334,210.321Zm1.145.628a2.352,2.352,0,0,0-.4,1.641,1.692,1.692,0,0,0,2.143,1.273,2.4,2.4,0,0,0,1.252-1.161,2.359,2.359,0,0,0,.412-1.626,1.752,1.752,0,0,0-2.171-1.277A2.371,2.371,0,0,0,280.479,210.948Z" transform="translate(-246.666 -204.511)"/></g><g transform="translate(85.564 198.254)"><path class="a" d="M110.121,317.9l6.379-.693.225,2.067a7.52,7.52,0,0,1,.071,1.542,1.679,1.679,0,0,1-.525.986,1.989,1.989,0,0,1-1.2.5,2.1,2.1,0,0,1-1.011-.106,1.758,1.758,0,0,1-.688-.474,1.867,1.867,0,0,1-.375-.635,7.392,7.392,0,0,1-.237-1.326l-.091-.84-2.406.261Zm5.44.712-1.81.2.077.7a3.337,3.337,0,0,0,.211,1.007.849.849,0,0,0,.357.368.864.864,0,0,0,.512.092.828.828,0,0,0,.552-.267.9.9,0,0,0,.227-.549,6.256,6.256,0,0,0-.057-.932Z" transform="translate(-110.121 -314.627)"/><path class="a" d="M118.051,339.512a4.083,4.083,0,0,1,1.653-.249,3.026,3.026,0,0,1,1.024.284,2.5,2.5,0,0,1,.813.6,3.511,3.511,0,0,1,.683,1.229,3.013,3.013,0,0,1-.107,2.432,3.931,3.931,0,0,1-4.619,1.567,2.987,2.987,0,0,1-1.554-1.859,3.02,3.02,0,0,1,.1-2.435A3.312,3.312,0,0,1,118.051,339.512Zm.469,1.25a2.4,2.4,0,0,0-1.4,1.005,1.731,1.731,0,0,0,.812,2.417,2.452,2.452,0,0,0,1.745-.065,2.412,2.412,0,0,0,1.4-.985,1.791,1.791,0,0,0-.83-2.438A2.423,2.423,0,0,0,118.519,340.762Z" transform="translate(-114.174 -330.539)"/><path class="a" d="M136.009,375.573l.431,1.245a2.819,2.819,0,0,1-1.825.161,3.023,3.023,0,0,1-1.981-3.27,3.342,3.342,0,0,1,1.424-2.086,3.508,3.508,0,0,1,2.49-.822,2.837,2.837,0,0,1,2.01,1.216,2.668,2.668,0,0,1,.584,1.95,2.533,2.533,0,0,1-.556,1.233l-1.011-.846a1.326,1.326,0,0,0,.056-1.728,1.46,1.46,0,0,0-1.1-.623,2.51,2.51,0,0,0-1.6.634,2.689,2.689,0,0,0-1.129,1.386,1.42,1.42,0,0,0,.265,1.221,1.3,1.3,0,0,0,.793.517A1.907,1.907,0,0,0,136.009,375.573Z" transform="translate(-126.336 -353.297)"/><path class="a" d="M146.077,389.707l4.245-4.811,3.567,3.148-.718.814-2.6-2.29-.941,1.067,2.415,2.131-.716.811-2.415-2.131-1.156,1.309,2.687,2.372-.715.81Z" transform="translate(-136.07 -363.48)"/><path class="a" d="M167.406,403.2l1.153.523a1.541,1.541,0,0,0-.066,1.039,1.4,1.4,0,0,0,.665.726,1.442,1.442,0,0,0,.949.242.787.787,0,0,0,.584-.378.583.583,0,0,0,.078-.4,1.073,1.073,0,0,0-.265-.473q-.158-.182-.759-.761a3.518,3.518,0,0,1-.949-1.28,1.67,1.67,0,0,1,.133-1.414,1.649,1.649,0,0,1,.7-.655,1.742,1.742,0,0,1,1.019-.163,3.212,3.212,0,0,1,1.205.438,2.708,2.708,0,0,1,1.311,1.367,1.869,1.869,0,0,1-.151,1.545l-1.151-.6a1.1,1.1,0,0,0,.046-.794,1.308,1.308,0,0,0-.6-.6,1.481,1.481,0,0,0-.882-.24.466.466,0,0,0-.377.242.491.491,0,0,0-.028.433,3.394,3.394,0,0,0,.817.966,6.285,6.285,0,0,1,.98,1.1,1.8,1.8,0,0,1,.289.92,2.022,2.022,0,0,1-1.07,1.755,1.838,1.838,0,0,1-1.108.187,3.631,3.631,0,0,1-1.326-.495,2.778,2.778,0,0,1-1.338-1.421A2.445,2.445,0,0,1,167.406,403.2Z" transform="translate(-151.277 -374.515)"/><path class="a" d="M192.048,414.11l1.725-5.044-1.8-.616.351-1.027,4.825,1.65L196.8,410.1l-1.8-.615-1.725,5.044Z" transform="translate(-169.191 -379.737)"/><path class="a" d="M213.587,417.366l-1.4-.179-.371-1.517-2.544-.325-.71,1.379-1.363-.174,3.292-6.048,1.359.174Zm-2.044-2.821-.575-2.473-1.161,2.252Zm-1.077-4.417.765-1.221,1.367.175-1.359,1.145Z" transform="translate(-180.182 -380.808)"/><path class="a" d="M246.78,417.813l1.3.2a2.817,2.817,0,0,1-.7,1.692,3.023,3.023,0,0,1-3.815.239,3.342,3.342,0,0,1-1.188-2.229,3.509,3.509,0,0,1,.426-2.587,2.836,2.836,0,0,1,2.009-1.217,2.667,2.667,0,0,1,2,.387,2.534,2.534,0,0,1,.834,1.064l-1.218.5a1.326,1.326,0,0,0-1.5-.851,1.459,1.459,0,0,0-1.063.687,2.512,2.512,0,0,0-.178,1.708,2.694,2.694,0,0,0,.7,1.643,1.42,1.42,0,0,0,1.205.331,1.293,1.293,0,0,0,.826-.464A1.906,1.906,0,0,0,246.78,417.813Z" transform="translate(-205.519 -384.384)"/><path class="a" d="M265.613,413.218l-2.358-5.968,1.2-.476.928,2.349,2.361-.932-.928-2.349,1.205-.476,2.357,5.968-1.2.476-1.031-2.61-2.361.933,1.031,2.609Z" transform="translate(-220.636 -378.253)"/><path class="a" d="M295.113,394.388l-5.794-3.586,1.1-.876,4.23,2.7-1.733-4.692,1.075-.857,2.2,6.449Z" transform="translate(-239.446 -365.054)"/><path class="a" d="M311.949,387.488l-4.843-4.128.841-.986,4.02,3.427,2.09-2.451.823.7Z" transform="translate(-252.283 -361.66)"/><path class="a" d="M329.553,362.36l-.683,1.233-1.547-.216-1.243,2.243,1.018,1.169-.666,1.2-4.4-5.3.664-1.2Zm-3.376.857-2.511-.38,1.663,1.911Z" transform="translate(-263.054 -346.594)"/><path class="a" d="M334.157,343.134l.25-1.242a1.534,1.534,0,0,0,1.026-.17,1.394,1.394,0,0,0,.558-.811,1.442,1.442,0,0,0,.021-.98.788.788,0,0,0-.5-.484.585.585,0,0,0-.409.015,1.065,1.065,0,0,0-.4.365q-.142.194-.57.91a3.51,3.51,0,0,1-1.033,1.213,1.669,1.669,0,0,1-1.407.19,1.652,1.652,0,0,1-.8-.533,1.737,1.737,0,0,1-.388-.956,3.21,3.21,0,0,1,.154-1.273,2.708,2.708,0,0,1,1.036-1.585,1.87,1.87,0,0,1,1.54-.2l-.323,1.256a1.1,1.1,0,0,0-.784.134,1.307,1.307,0,0,0-.446.722,1.477,1.477,0,0,0-.036.913.465.465,0,0,0,.321.313.5.5,0,0,0,.429-.07,3.411,3.411,0,0,0,.757-1.014,6.277,6.277,0,0,1,.849-1.2,1.8,1.8,0,0,1,.831-.488,2.019,2.019,0,0,1,1.951.647,1.835,1.835,0,0,1,.432,1.037,3.637,3.637,0,0,1-.183,1.4,2.778,2.778,0,0,1-1.083,1.624A2.446,2.446,0,0,1,334.157,343.134Z" transform="translate(-269.161 -329.284)"/><path class="a" d="M341.059,319.618l-5.3-.54-.193,1.894-1.08-.11.517-5.073,1.08.11-.193,1.889,5.3.54Z" transform="translate(-272.04 -313.606)"/><path class="a" d="M342.25,309.241l-6.413.217-.044-1.295,6.412-.217Z" transform="translate(-272.987 -307.946)"/></g><g transform="translate(76.094 155.952)"><g transform="translate(0 0)"><path class="a" d="M120.219,244.2a44.125,44.125,0,1,1,44.125-44.125A44.175,44.175,0,0,1,120.219,244.2Zm0-82.126a38,38,0,1,0,38,38A38.045,38.045,0,0,0,120.219,162.075Z" transform="translate(-76.094 -155.952)"/></g></g><g transform="translate(114.282 200.008)"><path class="a" d="M219.245,349.9l-5.936-35.511.824-.138,5.113,30.585,5.113-30.585.824.138Z" transform="translate(-213.309 -314.249)"/></g><g transform="translate(114.277 194.135)"><circle class="b" cx="5.525" cy="5.525" r="5.525" transform="translate(0.418 0.417)"/><path class="a" d="M219.23,305.03a5.942,5.942,0,1,1,5.942-5.942A5.949,5.949,0,0,1,219.23,305.03Zm0-11.049a5.107,5.107,0,1,0,5.107,5.107A5.113,5.113,0,0,0,219.23,293.981Z" transform="translate(-213.288 -293.146)"/></g></g></svg>